<?xml version="1.0" encoding="UTF-8" standalone="no"?>
<!DOCTYPE svg PUBLIC "-//W3C//DTD SVG 1.1//EN" "http://www.w3.org/Graphics/SVG/1.1/DTD/svg11.dtd">
<svg version="1.1" xmlns="http://www.w3.org/2000/svg" xmlns:xlink="http://www.w3.org/1999/xlink"
     preserveAspectRatio="xMidYMid meet" viewBox="-1 -1 644 644" width="640" height="640">
    <defs>
        <path d="M0 640L0 0L640 0L640 640L0 640ZM0 640L0 0L640 0L640 640L0 640ZM0 640L0 0L640 0L640 640L0 640ZM0 640L0 0L640 0L640 640L0 640Z"
              id="a21uQlSIsF"></path>
        <path d="M316.8 266.93C323.76 273.89 379.44 329.57 386.4 336.53C386.4 335.47 386.67 334.4 386.67 333.33C386.67 296.53 356.8 266.67 320 266.67C318.93 266.67 317.87 266.93 316.8 266.93ZM258.93 360.27C265.87 375.47 277.87 387.73 293.07 394.4C286.24 387.57 262.35 363.68 258.93 360.27ZM320 480C338.13 480 355.73 477.6 373.07 474.13C370.61 471.68 350.99 452.05 348.53 449.6C339.2 452 329.87 453.33 320 453.33C253.87 453.33 200 399.47 200 333.33C200 323.47 201.6 314.13 203.73 304.8C198.27 299.33 154.53 255.6 149.07 250.13C122.93 273.07 100.8 301.07 84.8 333.33C128.8 423.2 218.93 480 320 480ZM246.67 197.07C249.28 199.68 270.19 220.59 272.8 223.2C287.2 216.8 303.2 213.33 320 213.33C386.13 213.33 440 267.2 440 333.33C440 350.13 436.53 366.13 430.4 380.53C435.07 385.23 472.4 422.77 477.07 427.47C509.6 403.2 536.53 371.47 555.2 333.6C511.2 243.73 421.07 186.67 320 186.67C294.67 186.67 270.13 190.13 246.67 197.07Z"
              id="h18faurNyH"></path>
        <path d="M84.8 333.33C100.53 300.8 122.67 272.8 149.07 250.13C145.31 246.37 115.23 216.29 111.47 212.53C74.4 245.33 45.07 286.4 26.67 333.33C72.8 450.4 186.67 533.33 320 533.33C353.87 533.33 386.4 528 417.07 518.13C412.67 513.73 377.47 478.53 373.07 474.13C355.73 477.6 338.13 480 320 480C218.93 480 128.8 423.2 84.8 333.33ZM204 305.07C201.87 314.13 200.27 323.73 200.27 333.6C200 399.73 253.87 453.33 320 453.33C329.87 453.33 339.2 451.73 348.53 449.6C343.01 444.08 298.85 399.92 293.33 394.4C277.87 387.73 265.87 375.47 259.2 360.27C248.16 349.23 209.52 310.59 204 305.07ZM514.93 465.33C558.4 431.2 592.8 385.87 613.33 333.33C567.2 216.27 453.33 133.33 320 133.33C279.47 133.33 240.53 141.07 204.8 155.2C198.72 149.12 168.32 118.72 113.6 64L76 101.6L548.8 574.67L586.4 536.8C543.52 493.92 519.7 470.1 514.93 465.33ZM316.8 267.2C317.87 266.93 318.93 266.67 320 266.67C356.8 266.67 386.67 296.53 386.67 333.33C386.67 334.67 386.4 335.47 386.4 336.8C372.48 322.88 323.76 274.16 316.8 267.2ZM430.4 380.8C436.53 366.13 440 350.13 440 333.33C440 267.2 386.13 213.33 320 213.33C303.2 213.33 287.2 216.8 272.8 222.93C270.19 220.32 249.28 199.41 246.67 196.8C270.13 190.4 294.67 186.67 320 186.67C421.07 186.67 511.2 243.47 555.2 333.33C536.53 371.47 509.33 402.93 477.07 427.47C467.73 418.13 435.07 385.47 430.4 380.8Z"
              id="f2rPfFO61S"></path>
    </defs>
    <g>
        <g>
            <use xlink:href="#a21uQlSIsF" opacity="1" fill="#000000" fill-opacity="0"></use>
            <g>
                <use xlink:href="#a21uQlSIsF" opacity="1" fill-opacity="0" stroke="#000000" stroke-width="1"
                     stroke-opacity="0"></use>
            </g>
        </g>
        <g>
            <use xlink:href="#h18faurNyH" opacity="1" fill="#e4edf6" fill-opacity="1"></use>
            <g>
                <use xlink:href="#h18faurNyH" opacity="1" fill-opacity="0" stroke="#000000" stroke-width="1"
                     stroke-opacity="0"></use>
            </g>
        </g>
        <g>
            <use xlink:href="#f2rPfFO61S" opacity="1" fill="#33404d" fill-opacity="1"></use>
            <g>
                <use xlink:href="#f2rPfFO61S" opacity="1" fill-opacity="0" stroke="#000000" stroke-width="1"
                     stroke-opacity="0"></use>
            </g>
        </g>
    </g>
</svg>
